<svg xmlns="http://www.w3.org/2000/svg" viewBox="0 0 740.37 218.97">
	<defs>
		<style>
			.a{fill:#202c54;}.b{fill:#fff;}
		</style>
	</defs>
	<path d="M723.92 178.7h-10.18v14.78H709v-41.9h15.7c9.46 0 15.68 5 15.68 13.36 0 9.06-7.55 13.76-16.46 13.76zm.42-22.74h-10.6v18.43h10.36c6.94 0 11.5-3.8 11.5-9.3 0-6.1-4.5-9.1-11.26-9.1zm-27.6-4.36v41.88H692v-41.9zm-45.9 23.03v18.85h-4.72v-41.9h4.73v18.62H675v-18.6h4.73v41.88H675v-18.85zm-28-4.37c9.34 2 13.65 5.45 13.65 11.9 0 7.25-6 11.92-14.3 11.92a24.5 24.5 0 0 1-17.2-6.7l2.9-3.48c4.3 4 8.5 5.92 14.3 5.92 5.6 0 9.3-2.93 9.3-7.18 0-3.95-2.1-6.16-10.9-8-9.67-2.1-14.1-5.2-14.1-12.15 0-6.7 5.8-11.5 13.75-11.5a21.85 21.85 0 0 1 14.73 5.1l-2.78 3.6a18.4 18.4 0 0 0-12.1-4.6c-5.44 0-8.9 3-8.9 6.8 0 4 2.14 6.2 11.36 8.2zm-29.44 23.22l-12.16-16.28h-12v16.28h-4.73v-41.9h18c9.3 0 15.2 5 15.2 12.52 0 7-4.8 11.07-11.3 12.27l12.9 17.12zM582.2 156h-12.93v17h12.87c6.28 0 10.77-3.23 10.77-8.68 0-5.25-3.9-8.32-10.7-8.32zm-27.47-.1h-25.55v14.3H552v4.3h-22.82v14.67H555v4.3h-30.55V151.6h30.28zM508 151.6h4.6v41.88h-3.76l-27-34.35v34.35h-4.6v-41.9h4.42l26.34 33.6zm-53.75 41.88h-4.8V156H435.4v-4.37h32.9V156h-14.05zm-29.87 0l-12.15-16.28h-12v16.28h-4.73v-41.9h18c9.22 0 15.14 5 15.14 12.52 0 7-4.8 11.07-11.37 12.27l12.87 17.12zM413.18 156h-12.9v17h12.86c6.28 0 10.77-3.23 10.77-8.68 0-5.25-3.9-8.32-10.7-8.32zm-25.9 37.48h-5.1l-4.9-11.07h-22.8l-5 11.1h-4.85l19.1-42.2h4.42zM365.9 156.8l-9.56 21.36h19.1zm-38.53 21.9H317.2v14.78h-4.73v-41.9h15.68c9.46 0 15.68 5 15.68 13.36 0 9.06-7.54 13.76-16.46 13.76zm.42-22.74h-10.6v18.43h10.3c6.9 0 11.5-3.8 11.5-9.3-.1-6.1-4.5-9.1-11.3-9.1zm371.7-22.7c-28.3 0-49.1-22.23-49.1-50.47 0-28 20.7-50.8 49.5-50.8 17.7 0 28.3 6.3 38.1 15.5l-7.6 8.1c-8.2-7.8-17.4-13.4-30.7-13.4-21.7 0-37.9 17.4-37.9 40.2s16.4 40.6 37.9 40.6c13.4 0 22.2-5.2 31.54-14.1l7.28 7.1c-10.2 10.3-21.4 17.2-39.2 17.2zm-58.3-1.68h-11.9l-11.5-25.86h-53.2L553 131.58h-11.33L586.27 33h10.35zm-49.9-85.7l-22.4 49.9h44.6zm-59.9 85.7h-11.9L508 105.72h-53.2l-11.6 25.86h-11.3L476.53 33h10.35zm-49.9-85.7l-22.4 49.9h44.6zM388 77.34c21.8 4.75 31.87 12.72 31.87 27.82 0 16.92-14 27.82-33.4 27.82-15.53 0-28.25-5.17-40-15.66l6.84-8.1c10.3 9.22 20 13.83 33.6 13.83 13.2 0 21.8-6.85 21.8-16.77 0-9.23-4.9-14.4-25.4-18.73-22.5-4.9-32.8-12.16-32.8-28.38 0-15.66 13.6-26.84 32.2-26.84 14.3 0 24.5 4.05 34.4 12l-6.4 8.53c-9.1-7.4-18.15-10.62-28.22-10.62-12.7 0-20.82 7-20.82 15.94.05 9.37 5.08 14.54 26.6 19.16zm-63.73-43.62v97.86h-11V33.72z" class="a"/>
	<path d="M5 4h210v210H5z" class="b"/>
	<path d="M179.86 95.9c0 16.12-6.15 27.25-17.35 35.07-43.2 30.25-123.3-10.55-123.3-10.55l.4-5s61.1 28.05 98.4 12.6c12.7-5.25 16.7-16.22 16.7-31.7q0-21.83-18.33-30c-6.57-3-11.66-4.3-21.7-4.3l-5.6-8.4 10.24-.26q29.5 0 45.1 11.7T180 95.9m-73 32.5c-10-.7-20.13-1.9-28.92-4.63v-69.6h28.8zm-.55-92.54A14 14 0 0 1 102.3 46a13.18 13.18 0 0 1-9.84 4.2 13.43 13.43 0 0 1-9.9-4.2 13.9 13.9 0 0 1-4.14-10.1 13.8 13.8 0 0 1 4.06-10 13.48 13.48 0 0 1 10-4.14 13.3 13.3 0 0 1 9.85 4.13 13.83 13.83 0 0 1 4.08 10M78 170.9v-31.82c8.64 3.15 18.56 4.82 28.77 6.37v53.48c-30 0-28.77-28-28.77-28M219 0H0v219h219z" class="a"/>
</svg>
